<svg xmlns="http://www.w3.org/2000/svg" xmlns:v="https://svgstorm.com"
viewBox = "0 0 500 500"
width="500"
height="500">
<g fill="None" fill-opacity="0.0" stroke="#FEFEFE" stroke-opacity="1.00" stroke-width="0.3"><path d="
M 0.00 229.00 
C 1.40 229.53 1.00 231.75 1.00 233.00
C 1.43 233.95 1.27 236.72 0.00 237.00
L 0.00 265.00
C 1.43 266.03 1.69 270.04 0.00 271.00
L 0.00 500.00
L 229.00 500.00
C 229.53 498.60 231.75 499.00 233.00 499.00
C 233.95 498.57 236.72 498.73 237.00 500.00
L 265.00 500.00
C 266.03 498.57 270.04 498.31 271.00 500.00
L 500.00 500.00
L 500.00 271.00
C 498.60 270.47 499.00 268.25 499.00 267.00
C 498.57 266.05 498.73 263.28 500.00 263.00
L 500.00 235.00
C 498.57 233.97 498.31 229.96 500.00 229.00
L 500.00 0.00
L 271.00 0.00
C 270.47 1.40 268.25 1.00 267.00 1.00
C 266.05 1.43 263.28 1.27 263.00 0.00
L 235.00 0.00
C 233.97 1.43 229.96 1.69 229.00 0.00
L 0.00 0.00
L 0.00 229.00
M 225.00 1.00 
C 219.95 3.87 217.74 -0.17 225.00 1.00
M 281.00 1.00 
C 277.01 3.79 274.81 -0.10 281.00 1.00
M 216.00 2.00 
C 212.01 4.79 209.81 0.90 216.00 2.00
M 210.00 3.00 
C 207.06 5.68 204.90 2.01 210.00 3.00
M 295.00 3.00 
C 292.06 5.68 289.90 2.01 295.00 3.00
M 106.00 171.00 
C 107.21 170.96 108.81 171.59 109.00 173.00
C 109.07 173.49 109.00 174.00 109.00 174.00
C 111.34 177.17 110.00 184.85 110.00 189.00
C 110.00 192.56 110.76 197.25 109.00 200.00
C 107.87 201.77 104.94 202.45 103.00 203.00
C 99.95 203.86 97.97 203.74 95.00 203.00
C 92.70 202.95 90.96 202.13 89.00 201.00
C 88.36 200.63 87.60 200.37 87.00 200.00
C 85.39 199.02 83.82 197.68 83.00 196.00
C 82.80 195.60 83.00 195.00 83.00 195.00
C 81.72 193.76 81.53 192.73 81.00 191.00
C 80.00 187.75 79.92 183.89 80.00 180.00
C 80.19 170.66 83.10 170.00 92.00 170.00
C 95.47 170.00 103.69 168.60 106.00 171.00
M 4.00 205.00 
C 5.13 210.21 1.19 207.83 4.00 205.00
M 497.00 206.00 
C 498.13 211.21 494.19 208.83 497.00 206.00
M 498.00 211.00 
C 499.21 217.27 495.11 214.91 498.00 211.00
M 200.00 213.00 
C 207.67 213.49 214.71 215.51 221.00 220.00
C 223.31 221.65 225.46 223.68 227.00 226.00
C 228.25 227.88 228.83 230.08 230.00 232.00
C 231.82 231.40 232.15 229.44 233.00 228.00
C 234.77 225.69 236.71 223.70 239.00 222.00
C 245.49 217.17 253.94 213.55 262.00 213.00
C 265.19 212.43 267.89 212.49 271.00 213.00
C 277.91 213.37 285.22 216.15 291.00 220.00
C 293.70 221.80 296.16 224.43 298.00 227.00
C 302.23 232.92 305.03 239.84 306.00 247.00
C 306.32 248.18 306.94 249.27 307.00 251.00
C 307.05 252.33 307.00 253.67 307.00 255.00
C 308.41 265.34 309.10 278.98 308.00 290.00 C 306.90 301.02 311.23 316.28 307.00 326.00
C 305.97 328.37 306.40 327.96 304.00 329.00
C 299.42 330.99 286.44 331.35 282.00 329.00
C 279.93 327.90 279.74 326.94 279.00 325.00
C 275.30 315.28 278.97 302.93 278.00 292.00 C 277.03 281.07 278.42 268.13 278.00 257.00
C 277.81 251.93 276.86 248.12 274.00 244.00
C 273.21 243.03 270.92 240.72 270.00 240.00
C 267.42 238.28 264.90 237.72 262.00 237.00
C 259.31 236.67 255.69 236.64 253.00 237.00
C 242.35 239.76 237.41 248.32 237.00 259.00
C 236.59 269.80 238.12 282.40 237.00 293.00 C 235.88 303.60 240.02 316.76 236.00 326.00
C 234.97 328.37 235.40 327.96 233.00 329.00
C 228.49 330.96 215.35 331.40 211.00 329.00
C 204.55 325.44 208.99 314.84 208.00 308.00 C 207.01 301.16 208.53 291.53 208.00 284.00 C 207.47 276.47 208.45 266.72 208.00 259.00
C 207.85 258.11 207.16 256.41 207.00 255.00
C 206.58 251.33 205.97 248.21 204.00 245.00
C 203.13 243.79 200.14 240.89 199.00 240.00
C 196.42 238.28 193.90 237.72 191.00 237.00
C 188.31 236.67 184.69 236.64 182.00 237.00
C 171.35 239.76 166.41 248.32 166.00 259.00
C 165.59 269.80 167.12 282.40 166.00 293.00 C 164.88 303.60 169.02 316.76 165.00 326.00
C 163.97 328.37 164.40 327.96 162.00 329.00
C 157.11 331.13 144.82 331.10 140.00 329.00
C 137.63 327.97 138.04 328.40 137.00 326.00
C 132.84 316.43 136.74 301.96 136.00 291.00 C 135.26 280.04 135.29 266.06 136.00 255.00 C 136.71 243.94 133.02 228.77 137.00 219.00
C 139.73 212.29 161.14 212.59 164.00 219.00
C 164.73 220.64 165.48 222.73 165.00 225.00
C 167.04 224.19 167.97 221.73 170.00 221.00
C 176.72 216.00 184.61 213.29 193.00 213.00
C 195.54 212.64 197.48 212.55 200.00 213.00
M 104.00 329.00 
C 98.99 331.04 86.92 331.15 82.00 329.00
C 74.23 325.61 78.80 312.16 78.00 304.00 C 77.20 295.84 78.10 283.86 78.00 275.00 C 77.90 266.14 77.48 255.03 78.00 246.00
C 78.11 244.15 78.58 243.30 79.00 242.00
C 81.48 228.17 98.86 223.38 108.00 215.00
C 107.61 227.71 108.52 241.39 108.00 254.00 C 107.48 266.61 109.00 280.74 108.00 293.00 C 107.00 305.26 111.89 320.89 104.00 329.00
M 2.00 219.00 
C 3.21 225.27 -0.90 222.91 2.00 219.00
M 499.00 219.00 
C 500.26 226.32 496.06 223.99 499.00 219.00
M 337.00 275.00 
C 343.85 276.70 346.32 282.23 350.00 288.00
C 351.27 287.44 351.25 285.15 353.00 285.00
C 355.48 282.09 356.48 276.88 360.00 275.00
C 362.32 273.76 368.86 272.86 371.00 275.00
C 373.84 277.84 363.97 289.82 362.00 293.00
C 360.88 294.81 359.86 296.98 358.00 298.00
C 362.81 306.68 369.20 314.33 374.00 323.00
C 371.10 324.90 367.30 323.62 364.00 324.00
C 355.95 323.10 354.98 314.34 349.00 310.00
C 348.32 311.88 346.98 313.32 346.00 315.00
C 343.46 318.94 341.82 323.18 337.00 324.00
C 325.69 325.91 326.04 322.16 331.00 315.00
C 332.90 312.26 335.27 309.55 337.00 307.00
C 338.61 304.62 339.47 300.79 342.00 299.00
C 336.97 292.23 331.52 284.62 328.00 277.00
C 327.60 276.14 325.06 275.75 326.00 274.00
C 329.50 274.62 334.32 272.73 337.00 275.00
M 403.00 275.00 
C 411.54 275.46 417.43 279.64 419.00 288.00
C 419.45 290.42 419.55 291.59 419.00 294.00
C 418.49 298.96 415.57 299.50 413.00 303.00
C 410.67 306.17 413.32 312.07 417.92 317.08 C 422.53 322.08 415.01 327.35 408.33 323.67 C 401.65 319.99 404.18 312.84 400.00 308.00
C 397.81 306.18 394.59 307.34 392.00 307.00
C 395.85 314.79 389.75 329.42 381.00 324.00 C 372.25 318.58 383.41 305.31 379.00 298.00
C 379.00 294.80 378.57 288.94 379.00 286.00 C 379.43 283.06 377.39 276.29 380.00 275.00
C 383.63 271.37 398.78 274.31 403.00 275.00
M 2.00 275.00 
C 3.26 282.32 -0.94 279.99 2.00 275.00
M 499.00 276.00 
C 500.21 282.27 496.11 279.91 499.00 276.00
M 3.00 284.00 
C 4.21 290.27 0.10 287.91 3.00 284.00
M 4.00 290.00 
C 5.13 295.21 1.19 292.83 4.00 290.00
M 497.00 291.00 
C 498.13 296.21 494.19 293.83 497.00 291.00
M 209.00 496.00 
C 206.06 498.68 203.90 495.01 209.00 496.00
M 294.00 496.00 
C 291.06 498.68 288.90 495.02 294.00 496.00
M 289.00 497.00 
C 285.01 499.80 282.81 495.90 289.00 497.00
M 224.00 498.00 
C 220.01 500.79 217.81 496.91 224.00 498.00
M 281.00 498.00 
C 275.95 500.87 273.74 496.83 281.00 498.00 Z"/>
</g>
<g fill="None" fill-opacity="0.0" stroke="#FFFFFF" stroke-opacity="0.57" stroke-width="0.3"><path d="
M 235.00 0.00 
L 229.00 0.00
C 229.96 1.69 233.97 1.43 235.00 0.00 Z"/>
</g>
<g fill="None" fill-opacity="0.0" stroke="#FFFFFF" stroke-opacity="0.81" stroke-width="0.3"><path d="
M 267.00 1.00 
C 266.81 0.91 267.00 0.00 267.00 0.00
L 263.00 0.00
C 263.28 1.27 266.05 1.43 267.00 1.00 Z"/>
</g>
<g fill="None" fill-opacity="0.0" stroke="#FFFFFF" stroke-opacity="0.48" stroke-width="0.3"><path d="
M 267.00 1.00 
C 268.25 1.00 270.47 1.40 271.00 0.00
L 267.00 0.00
C 267.00 0.00 266.81 0.91 267.00 1.00 Z"/>
</g>
<g fill="None" fill-opacity="0.0" stroke="#FFFFFF" stroke-opacity="0.82" stroke-width="0.3"><path d="
M 225.00 1.00 
C 217.74 -0.17 219.95 3.87 225.00 1.00 Z"/>
</g>
<g fill="None" fill-opacity="0.0" stroke="#FFFFFF" stroke-opacity="0.80" stroke-width="0.3"><path d="
M 281.00 1.00 
C 274.81 -0.10 277.01 3.79 281.00 1.00 Z"/>
</g>
<g fill="None" fill-opacity="0.0" stroke="#FFFFFF" stroke-opacity="0.82" stroke-width="0.3"><path d="
M 216.00 2.00 
C 209.81 0.90 212.01 4.79 216.00 2.00 Z"/>
</g>
<g fill="None" fill-opacity="0.0" stroke="#FFFFFF" stroke-opacity="0.82" stroke-width="0.3"><path d="
M 210.00 3.00 
C 204.90 2.01 207.06 5.68 210.00 3.00 Z"/>
</g>
<g fill="None" fill-opacity="0.0" stroke="#FFFFFF" stroke-opacity="0.82" stroke-width="0.3"><path d="
M 295.00 3.00 
C 289.90 2.01 292.06 5.68 295.00 3.00 Z"/>
</g>
<g fill="None" fill-opacity="0.0" stroke="#70D9F5" stroke-opacity="1.00" stroke-width="0.3"><path d="
M 80.00 180.00 
C 80.95 177.44 89.78 170.52 92.00 170.00
C 83.10 170.00 80.19 170.66 80.00 180.00 Z"/>
</g>
<g fill="None" fill-opacity="0.0" stroke="#58B3F2" stroke-opacity="1.00" stroke-width="0.3"><path d="
M 80.00 180.00 
C 79.92 183.89 80.00 187.75 81.00 191.00
C 80.81 185.19 87.64 183.45 90.75 178.75 C 93.86 174.05 99.13 170.44 105.00 171.00
C 105.50 171.05 106.00 171.00 106.00 171.00
C 103.69 168.60 95.47 170.00 92.00 170.00
C 89.78 170.52 80.95 177.44 80.00 180.00 Z"/>
</g>
<g fill="None" fill-opacity="0.0" stroke="#408CF0" stroke-opacity="1.00" stroke-width="0.3"><path d="
M 81.00 191.00 
C 81.53 192.73 81.72 193.76 83.00 195.00
C 84.68 186.41 99.94 178.23 105.00 171.00
C 99.13 170.44 93.86 174.05 90.75 178.75 C 87.64 183.45 80.81 185.19 81.00 191.00 Z"/>
</g>
<g fill="None" fill-opacity="0.0" stroke="#3272EF" stroke-opacity="1.00" stroke-width="0.3"><path d="
M 83.00 195.00 
C 83.00 195.00 82.80 195.60 83.00 196.00
C 83.25 196.51 84.64 196.69 85.00 197.00
C 88.64 195.29 91.55 186.40 96.25 184.25 C 100.94 182.10 103.55 173.58 109.00 173.00
C 108.81 171.59 107.21 170.96 106.00 171.00
C 106.00 171.00 105.50 171.05 105.00 171.00
C 99.94 178.23 84.68 186.41 83.00 195.00 Z"/>
</g>
<g fill="None" fill-opacity="0.0" stroke="#2759DB" stroke-opacity="1.00" stroke-width="0.3"><path d="
M 85.00 197.00 
C 85.79 197.67 86.27 199.38 87.00 200.00
C 87.60 200.37 88.36 200.63 89.00 201.00
C 90.98 200.07 95.95 192.41 98.25 190.25 C 100.54 188.09 108.14 182.62 109.00 180.00
C 109.00 178.00 109.00 176.00 109.00 174.00
C 109.00 174.00 109.07 173.49 109.00 173.00
C 103.55 173.58 100.94 182.10 96.25 184.25 C 91.55 186.40 88.64 195.29 85.00 197.00 Z"/>
</g>
<g fill="None" fill-opacity="0.0" stroke="#768BCA" stroke-opacity="1.00" stroke-width="0.3"><path d="
M 109.00 180.00 
C 109.00 183.00 109.00 186.00 109.00 189.00
C 109.25 188.75 110.00 189.00 110.00 189.00
C 110.00 184.85 111.34 177.17 109.00 174.00
C 109.00 176.00 109.00 178.00 109.00 180.00 Z"/>
</g>
<g fill="None" fill-opacity="0.0" stroke="#213F9A" stroke-opacity="1.00" stroke-width="0.3"><path d="
M 89.00 201.00 
C 90.96 202.13 92.70 202.95 95.00 203.00
C 95.50 203.01 96.00 203.00 96.00 203.00
C 99.22 198.40 104.45 193.17 109.00 190.00
C 109.00 189.50 109.00 189.00 109.00 189.00
C 109.00 186.00 109.00 183.00 109.00 180.00
C 108.14 182.62 100.54 188.09 98.25 190.25 C 95.95 192.41 90.98 200.07 89.00 201.00 Z"/>
</g>
<g fill="None" fill-opacity="0.0" stroke="#6F7592" stroke-opacity="1.00" stroke-width="0.3"><path d="
M 109.00 190.00 
C 109.00 192.59 110.01 197.66 109.00 200.00
C 110.76 197.25 110.00 192.56 110.00 189.00
C 110.00 189.00 109.25 188.75 109.00 189.00
C 109.00 189.00 109.00 189.50 109.00 190.00 Z"/>
</g>
<g fill="None" fill-opacity="0.0" stroke="#1C2759" stroke-opacity="1.00" stroke-width="0.3"><path d="
M 96.00 203.00 
C 98.25 203.00 100.77 203.32 103.00 203.00
C 104.94 202.45 107.87 201.77 109.00 200.00
C 110.01 197.66 109.00 192.59 109.00 190.00
C 104.45 193.17 99.22 198.40 96.00 203.00 Z"/>
</g>
<g fill="None" fill-opacity="0.0" stroke="#C2D1F7" stroke-opacity="1.00" stroke-width="0.3"><path d="
M 87.00 200.00 
C 86.27 199.38 85.79 197.67 85.00 197.00
C 84.64 196.69 83.25 196.51 83.00 196.00
C 83.82 197.68 85.39 199.02 87.00 200.00 Z"/>
</g>
<g fill="None" fill-opacity="0.0" stroke="#8B90AA" stroke-opacity="1.00" stroke-width="0.3"><path d="
M 103.00 203.00 
C 100.77 203.32 98.25 203.00 96.00 203.00
C 96.00 203.00 95.50 203.01 95.00 203.00
C 97.97 203.74 99.95 203.86 103.00 203.00 Z"/>
</g>
<g fill="None" fill-opacity="0.0" stroke="#FFFFFF" stroke-opacity="0.82" stroke-width="0.3"><path d="
M 4.00 205.00 
C 1.19 207.83 5.13 210.21 4.00 205.00 Z"/>
</g>
<g fill="None" fill-opacity="0.0" stroke="#FFFFFF" stroke-opacity="0.82" stroke-width="0.3"><path d="
M 497.00 206.00 
C 494.19 208.83 498.13 211.21 497.00 206.00 Z"/>
</g>
<g fill="None" fill-opacity="0.0" stroke="#FFFFFF" stroke-opacity="0.82" stroke-width="0.3"><path d="
M 498.00 211.00 
C 495.11 214.91 499.21 217.27 498.00 211.00 Z"/>
</g>
<g fill="None" fill-opacity="0.0" stroke="#B9B9B9" stroke-opacity="1.00" stroke-width="0.3"><path d="
M 193.00 213.00 
C 195.30 212.92 197.71 212.85 200.00 213.00
C 197.48 212.55 195.54 212.64 193.00 213.00 Z"/>
</g>
<g fill="None" fill-opacity="0.0" stroke="#C1C1C1" stroke-opacity="1.00" stroke-width="0.3"><path d="
M 262.00 213.00 
C 264.92 212.80 268.07 212.84 271.00 213.00
C 267.89 212.49 265.19 212.43 262.00 213.00 Z"/>
</g>
<g fill="None" fill-opacity="0.0" stroke="#000000" stroke-opacity="1.00" stroke-width="0.3"><path d="
M 170.00 221.00 
C 167.98 222.76 166.67 225.96 164.00 227.00
C 164.00 224.33 164.00 221.67 164.00 219.00
C 161.14 212.59 139.73 212.29 137.00 219.00
C 134.29 229.78 137.63 242.76 137.00 254.00 C 136.37 265.24 136.13 278.73 137.00 290.00 C 137.87 301.27 134.04 315.18 137.00 326.00
C 138.04 328.40 137.63 327.97 140.00 329.00
C 144.81 330.32 157.19 330.32 162.00 329.00
C 164.40 327.96 163.97 328.37 165.00 326.00
C 167.83 315.66 163.93 302.75 165.00 292.00 C 166.07 281.25 164.55 269.12 166.00 259.00
C 166.41 248.32 171.35 239.76 182.00 237.00
C 185.29 236.15 187.77 236.20 191.00 237.00
C 193.90 237.72 196.42 238.28 199.00 240.00
C 200.98 241.32 202.78 243.01 204.00 245.00
C 205.97 248.21 206.58 251.33 207.00 255.00
C 207.28 256.12 207.90 257.34 208.00 259.00
C 208.45 266.72 207.47 276.47 208.00 284.00 C 208.53 291.53 207.01 301.16 208.00 308.00 C 208.99 314.84 204.55 325.44 211.00 329.00
C 215.21 330.53 228.65 330.19 233.00 329.00
C 235.40 327.96 234.97 328.37 236.00 326.00
C 238.83 315.66 234.93 302.75 236.00 292.00 C 237.07 281.25 235.55 269.12 237.00 259.00
C 237.41 248.32 242.35 239.76 253.00 237.00
C 256.29 236.15 258.77 236.20 262.00 237.00
C 264.90 237.72 267.42 238.28 270.00 240.00
C 271.71 241.14 272.87 242.37 274.00 244.00
C 276.86 248.12 277.81 251.93 278.00 257.00
C 279.48 267.39 278.00 278.96 279.00 290.00 C 280.00 301.04 276.49 314.21 279.00 325.00
C 279.74 326.94 279.93 327.90 282.00 329.00
C 286.30 330.51 299.58 330.21 304.00 329.00
C 306.40 327.96 305.97 328.37 307.00 326.00
C 309.97 315.16 305.93 302.35 307.00 291.00 C 308.07 279.65 307.00 266.51 307.00 255.00
C 307.00 253.67 307.05 252.33 307.00 251.00
C 306.88 250.20 306.18 248.31 306.00 247.00
C 305.03 239.84 302.23 232.92 298.00 227.00
C 296.33 225.01 292.97 221.54 291.00 220.00
C 285.22 216.15 277.91 213.37 271.00 213.00
C 268.07 212.84 264.92 212.80 262.00 213.00
C 253.94 213.55 245.49 217.17 239.00 222.00
C 237.17 223.59 234.58 226.25 233.00 228.00
C 232.15 229.44 231.82 231.40 230.00 232.00
C 228.83 230.08 228.25 227.88 227.00 226.00
C 225.68 224.32 222.60 221.34 221.00 220.00
C 214.71 215.51 207.67 213.49 200.00 213.00
C 197.71 212.85 195.30 212.92 193.00 213.00
C 184.61 213.29 176.72 216.00 170.00 221.00 Z"/>
</g>
<g fill="None" fill-opacity="0.0" stroke="#000000" stroke-opacity="1.00" stroke-width="0.3"><path d="
M 79.00 242.00 
C 78.77 243.27 78.14 245.22 78.00 246.00
C 77.48 255.03 77.90 266.14 78.00 275.00 C 78.10 283.86 77.20 295.84 78.00 304.00 C 78.80 312.16 74.23 325.61 82.00 329.00
C 86.92 330.35 99.05 330.25 104.00 329.00
C 111.89 320.89 107.00 305.26 108.00 293.00 C 109.00 280.74 107.48 266.61 108.00 254.00 C 108.52 241.39 107.61 227.71 108.00 215.00
C 98.86 223.38 81.48 228.17 79.00 242.00 Z"/>
</g>
<g fill="None" fill-opacity="0.0" stroke="#FFFFFF" stroke-opacity="0.80" stroke-width="0.3"><path d="
M 2.00 219.00 
C -0.90 222.91 3.21 225.27 2.00 219.00 Z"/>
</g>
<g fill="None" fill-opacity="0.0" stroke="#5F5F5F" stroke-opacity="1.00" stroke-width="0.3"><path d="
M 137.00 326.00 
C 134.04 315.18 137.87 301.27 137.00 290.00 C 136.13 278.73 136.37 265.24 137.00 254.00 C 137.63 242.76 134.29 229.78 137.00 219.00
C 133.02 228.77 136.71 243.94 136.00 255.00 C 135.29 266.06 135.26 280.04 136.00 291.00 C 136.74 301.96 132.84 316.43 137.00 326.00 Z"/>
</g>
<g fill="None" fill-opacity="0.0" stroke="#C7C8C7" stroke-opacity="1.00" stroke-width="0.3"><path d="
M 170.00 221.00 
C 167.97 221.73 167.04 224.19 165.00 225.00
C 165.48 222.73 164.73 220.64 164.00 219.00
C 164.00 221.67 164.00 224.33 164.00 227.00
C 166.67 225.96 167.98 222.76 170.00 221.00 Z"/>
</g>
<g fill="None" fill-opacity="0.0" stroke="#FFFFFF" stroke-opacity="0.82" stroke-width="0.3"><path d="
M 499.00 219.00 
C 496.06 223.99 500.26 226.32 499.00 219.00 Z"/>
</g>
<g fill="None" fill-opacity="0.0" stroke="#A4A4A4" stroke-opacity="1.00" stroke-width="0.3"><path d="
M 227.00 226.00 
C 225.46 223.68 223.31 221.65 221.00 220.00
C 222.60 221.34 225.68 224.32 227.00 226.00 Z"/>
</g>
<g fill="None" fill-opacity="0.0" stroke="#A3A3A3" stroke-opacity="1.00" stroke-width="0.3"><path d="
M 298.00 227.00 
C 296.16 224.43 293.70 221.80 291.00 220.00
C 292.97 221.54 296.33 225.01 298.00 227.00 Z"/>
</g>
<g fill="None" fill-opacity="0.0" stroke="#B6B6B6" stroke-opacity="1.00" stroke-width="0.3"><path d="
M 233.00 228.00 
C 234.58 226.25 237.17 223.59 239.00 222.00
C 236.71 223.70 234.77 225.69 233.00 228.00 Z"/>
</g>
<g fill="None" fill-opacity="0.0" stroke="#FFFFFF" stroke-opacity="0.48" stroke-width="0.3"><path d="
M 0.00 233.00 
C 0.50 233.00 1.00 233.00 1.00 233.00
C 1.00 231.75 1.40 229.53 0.00 229.00
L 0.00 233.00 Z"/>
</g>
<g fill="None" fill-opacity="0.0" stroke="#FFFFFF" stroke-opacity="0.57" stroke-width="0.3"><path d="
M 500.00 235.00 
L 500.00 229.00
C 498.31 229.96 498.57 233.97 500.00 235.00 Z"/>
</g>
<g fill="None" fill-opacity="0.0" stroke="#FFFFFF" stroke-opacity="0.81" stroke-width="0.3"><path d="
M 0.00 237.00 
C 1.27 236.72 1.43 233.95 1.00 233.00
C 1.00 233.00 0.50 233.00 0.00 233.00
L 0.00 237.00 Z"/>
</g>
<g fill="None" fill-opacity="0.0" stroke="#787878" stroke-opacity="1.00" stroke-width="0.3"><path d="
M 182.00 237.00 
C 184.69 236.64 188.31 236.67 191.00 237.00
C 187.77 236.20 185.29 236.15 182.00 237.00 Z"/>
</g>
<g fill="None" fill-opacity="0.0" stroke="#787878" stroke-opacity="1.00" stroke-width="0.3"><path d="
M 253.00 237.00 
C 255.69 236.64 259.31 236.67 262.00 237.00
C 258.77 236.20 256.29 236.15 253.00 237.00 Z"/>
</g>
<g fill="None" fill-opacity="0.0" stroke="#7A7A7A" stroke-opacity="1.00" stroke-width="0.3"><path d="
M 204.00 245.00 
C 202.78 243.01 200.98 241.32 199.00 240.00
C 200.14 240.89 203.13 243.79 204.00 245.00 Z"/>
</g>
<g fill="None" fill-opacity="0.0" stroke="#979797" stroke-opacity="1.00" stroke-width="0.3"><path d="
M 274.00 244.00 
C 272.87 242.37 271.71 241.14 270.00 240.00
C 270.92 240.72 273.21 243.03 274.00 244.00 Z"/>
</g>
<g fill="None" fill-opacity="0.0" stroke="#656565" stroke-opacity="1.00" stroke-width="0.3"><path d="
M 78.00 246.00 
C 78.14 245.22 78.77 243.27 79.00 242.00
C 78.58 243.30 78.11 244.15 78.00 246.00 Z"/>
</g>
<g fill="None" fill-opacity="0.0" stroke="#636363" stroke-opacity="1.00" stroke-width="0.3"><path d="
M 307.00 251.00 
C 306.94 249.27 306.32 248.18 306.00 247.00
C 306.18 248.31 306.88 250.20 307.00 251.00 Z"/>
</g>
<g fill="None" fill-opacity="0.0" stroke="#858585" stroke-opacity="1.00" stroke-width="0.3"><path d="
M 208.00 259.00 
C 207.90 257.34 207.28 256.12 207.00 255.00
C 207.16 256.41 207.85 258.11 208.00 259.00 Z"/>
</g>
<g fill="None" fill-opacity="0.0" stroke="#828282" stroke-opacity="1.00" stroke-width="0.3"><path d="
M 307.00 326.00 
C 311.23 316.28 306.90 301.02 308.00 290.00 C 309.10 278.98 308.41 265.34 307.00 255.00
C 307.00 266.51 308.07 279.65 307.00 291.00 C 305.93 302.35 309.97 315.16 307.00 326.00 Z"/>
</g>
<g fill="None" fill-opacity="0.0" stroke="#ADADAD" stroke-opacity="1.00" stroke-width="0.3"><path d="
M 279.00 325.00 
C 276.49 314.21 280.00 301.04 279.00 290.00 C 278.00 278.96 279.48 267.39 278.00 257.00
C 278.42 268.13 277.03 281.07 278.00 292.00 C 278.97 302.93 275.30 315.28 279.00 325.00 Z"/>
</g>
<g fill="None" fill-opacity="0.0" stroke="#6E6E6E" stroke-opacity="1.00" stroke-width="0.3"><path d="
M 165.00 326.00 
C 169.02 316.76 164.88 303.60 166.00 293.00 C 167.12 282.40 165.59 269.80 166.00 259.00
C 164.55 269.12 166.07 281.25 165.00 292.00 C 163.93 302.75 167.83 315.66 165.00 326.00 Z"/>
</g>
<g fill="None" fill-opacity="0.0" stroke="#5E5E5E" stroke-opacity="1.00" stroke-width="0.3"><path d="
M 236.00 326.00 
C 240.02 316.76 235.88 303.60 237.00 293.00 C 238.12 282.40 236.59 269.80 237.00 259.00
C 235.55 269.12 237.07 281.25 236.00 292.00 C 234.93 302.75 238.83 315.66 236.00 326.00 Z"/>
</g>
<g fill="None" fill-opacity="0.0" stroke="#FFFFFF" stroke-opacity="0.81" stroke-width="0.3"><path d="
M 499.00 267.00 
C 499.09 266.81 500.00 267.00 500.00 267.00
L 500.00 263.00
C 498.73 263.28 498.57 266.05 499.00 267.00 Z"/>
</g>
<g fill="None" fill-opacity="0.0" stroke="#FFFFFF" stroke-opacity="0.57" stroke-width="0.3"><path d="
M 0.00 271.00 
C 1.69 270.04 1.43 266.03 0.00 265.00
L 0.00 271.00 Z"/>
</g>
<g fill="None" fill-opacity="0.0" stroke="#FFFFFF" stroke-opacity="0.48" stroke-width="0.3"><path d="
M 500.00 271.00 
L 500.00 267.00
C 500.00 267.00 499.09 266.81 499.00 267.00
C 499.00 268.25 498.60 270.47 500.00 271.00 Z"/>
</g>
<g fill="None" fill-opacity="0.0" stroke="#94BDF7" stroke-opacity="1.00" stroke-width="0.3"><path d="
M 328.00 277.00 
C 327.83 273.94 333.35 274.55 337.00 275.00
C 334.32 272.73 329.50 274.62 326.00 274.00
C 325.06 275.75 327.60 276.14 328.00 277.00 Z"/>
</g>
<g fill="None" fill-opacity="0.0" stroke="#A0AFD9" stroke-opacity="1.00" stroke-width="0.3"><path d="
M 360.00 275.00 
C 361.45 274.49 369.77 274.20 371.00 275.00
C 368.86 272.86 362.32 273.76 360.00 275.00 Z"/>
</g>
<g fill="None" fill-opacity="0.0" stroke="#A3B5DD" stroke-opacity="1.00" stroke-width="0.3"><path d="
M 380.00 275.00 
C 380.60 274.71 382.32 275.00 383.00 275.00
C 389.63 275.00 396.38 274.64 403.00 275.00
C 398.78 274.31 383.63 271.37 380.00 275.00 Z"/>
</g>
<g fill="None" fill-opacity="0.0" stroke="#FFFFFF" stroke-opacity="0.82" stroke-width="0.3"><path d="
M 2.00 275.00 
C -0.94 279.99 3.26 282.32 2.00 275.00 Z"/>
</g>
<g fill="None" fill-opacity="0.0" stroke="#2F69EE" stroke-opacity="1.00" stroke-width="0.3"><path d="
M 328.00 277.00 
C 331.52 284.62 336.97 292.23 342.00 299.00
C 344.25 302.02 351.43 309.07 353.75 311.25 C 356.07 313.43 366.14 322.94 364.00 324.00
C 367.30 323.62 371.10 324.90 374.00 323.00
C 369.20 314.33 362.81 306.68 358.00 298.00
C 359.86 296.98 360.88 294.81 362.00 293.00
C 359.53 294.38 352.98 287.88 353.00 285.00
C 351.25 285.15 351.27 287.44 350.00 288.00
C 346.32 282.23 343.85 276.70 337.00 275.00
C 333.35 274.55 327.83 273.94 328.00 277.00 Z"/>
</g>
<g fill="None" fill-opacity="0.0" stroke="#2756D3" stroke-opacity="1.00" stroke-width="0.3"><path d="
M 353.00 285.00 
C 352.98 287.88 359.53 294.38 362.00 293.00
C 363.97 289.82 373.84 277.84 371.00 275.00
C 369.77 274.20 361.45 274.49 360.00 275.00
C 356.48 276.88 355.48 282.09 353.00 285.00 Z"/>
</g>
<g fill="None" fill-opacity="0.0" stroke="#2449B2" stroke-opacity="1.00" stroke-width="0.3"><path d="
M 379.00 298.00 
C 380.51 302.10 388.74 304.35 390.00 309.00
C 391.35 305.47 398.10 304.35 400.00 308.00
C 404.18 312.84 401.65 319.99 408.33 323.67 C 415.01 327.35 422.53 322.08 417.92 317.08 C 413.32 312.07 410.67 306.17 413.00 303.00
C 411.45 299.01 406.57 298.34 406.00 294.00
C 405.12 295.79 402.48 295.58 401.00 296.00
C 399.02 296.56 393.77 298.53 392.00 296.00
C 390.28 293.54 393.29 287.76 392.00 285.00
C 395.33 285.00 398.67 285.00 402.00 285.00
C 398.83 283.61 393.41 284.45 390.26 282.74 C 387.11 281.03 385.86 276.27 383.00 275.00
C 382.32 275.00 380.60 274.71 380.00 275.00
C 377.39 276.29 379.43 283.06 379.00 286.00 C 378.57 288.94 379.00 294.80 379.00 298.00 Z"/>
</g>
<g fill="None" fill-opacity="0.0" stroke="#1F347C" stroke-opacity="1.00" stroke-width="0.3"><path d="
M 402.00 285.00 
C 406.45 286.94 405.41 289.44 406.00 294.00
C 406.57 298.34 411.45 299.01 413.00 303.00
C 415.57 299.50 418.49 298.96 419.00 294.00
C 419.20 292.11 419.14 289.90 419.00 288.00
C 417.43 279.64 411.54 275.46 403.00 275.00
C 396.38 274.64 389.63 275.00 383.00 275.00
C 385.86 276.27 387.11 281.03 390.26 282.74 C 393.41 284.45 398.83 283.61 402.00 285.00 Z"/>
</g>
<g fill="None" fill-opacity="0.0" stroke="#FFFFFF" stroke-opacity="0.80" stroke-width="0.3"><path d="
M 499.00 276.00 
C 496.11 279.91 500.21 282.27 499.00 276.00 Z"/>
</g>
<g fill="None" fill-opacity="0.0" stroke="#FFFFFF" stroke-opacity="0.83" stroke-width="0.3"><path d="
M 3.00 284.00 
C 0.10 287.91 4.21 290.27 3.00 284.00 Z"/>
</g>
<g fill="None" fill-opacity="0.0" stroke="#FBFCFD" stroke-opacity="1.00" stroke-width="0.3"><path d="
M 392.00 296.00 
C 394.95 295.66 398.07 296.45 401.00 296.00
C 402.48 295.58 405.12 295.79 406.00 294.00
C 405.41 289.44 406.45 286.94 402.00 285.00
C 398.67 285.00 395.33 285.00 392.00 285.00
C 393.29 287.76 390.28 293.54 392.00 296.00 Z"/>
</g>
<g fill="None" fill-opacity="0.0" stroke="#838AA9" stroke-opacity="1.00" stroke-width="0.3"><path d="
M 419.00 294.00 
C 419.55 291.59 419.45 290.42 419.00 288.00
C 419.14 289.90 419.20 292.11 419.00 294.00 Z"/>
</g>
<g fill="None" fill-opacity="0.0" stroke="#FFFFFF" stroke-opacity="0.82" stroke-width="0.3"><path d="
M 4.00 290.00 
C 1.19 292.83 5.13 295.21 4.00 290.00 Z"/>
</g>
<g fill="None" fill-opacity="0.0" stroke="#FFFFFF" stroke-opacity="0.82" stroke-width="0.3"><path d="
M 497.00 291.00 
C 494.19 293.83 498.13 296.21 497.00 291.00 Z"/>
</g>
<g fill="None" fill-opacity="0.0" stroke="#6684D4" stroke-opacity="1.00" stroke-width="0.3"><path d="
M 401.00 296.00 
C 398.07 296.45 394.95 295.66 392.00 296.00
C 393.77 298.53 399.02 296.56 401.00 296.00 Z"/>
</g>
<g fill="None" fill-opacity="0.0" stroke="#295DE2" stroke-opacity="1.00" stroke-width="0.3"><path d="
M 400.00 308.00 
C 398.10 304.35 391.35 305.47 390.00 309.00
C 388.74 304.35 380.51 302.10 379.00 298.00
C 383.41 305.31 372.25 318.58 381.00 324.00 C 389.75 329.42 395.85 314.79 392.00 307.00
C 394.59 307.34 397.81 306.18 400.00 308.00 Z"/>
</g>
<g fill="None" fill-opacity="0.0" stroke="#3B7FEF" stroke-opacity="1.00" stroke-width="0.3"><path d="
M 337.00 307.00 
C 337.21 308.96 344.12 315.45 346.00 315.00
C 346.98 313.32 348.32 311.88 349.00 310.00
C 354.98 314.34 355.95 323.10 364.00 324.00
C 366.14 322.94 356.07 313.43 353.75 311.25 C 351.43 309.07 344.25 302.02 342.00 299.00
C 339.47 300.79 338.61 304.62 337.00 307.00 Z"/>
</g>
<g fill="None" fill-opacity="0.0" stroke="#4EA3F1" stroke-opacity="1.00" stroke-width="0.3"><path d="
M 331.00 315.00 
C 331.12 317.07 340.04 322.14 337.00 324.00
C 341.82 323.18 343.46 318.94 346.00 315.00
C 344.12 315.45 337.21 308.96 337.00 307.00
C 335.27 309.55 332.90 312.26 331.00 315.00 Z"/>
</g>
<g fill="None" fill-opacity="0.0" stroke="#66C9F3" stroke-opacity="1.00" stroke-width="0.3"><path d="
M 337.00 324.00 
C 340.04 322.14 331.12 317.07 331.00 315.00
C 326.04 322.16 325.69 325.91 337.00 324.00 Z"/>
</g>
<g fill="None" fill-opacity="0.0" stroke="#424242" stroke-opacity="1.00" stroke-width="0.3"><path d="
M 104.00 329.00 
C 99.05 330.25 86.92 330.35 82.00 329.00
C 86.92 331.15 98.99 331.04 104.00 329.00 Z"/>
</g>
<g fill="None" fill-opacity="0.0" stroke="#444444" stroke-opacity="1.00" stroke-width="0.3"><path d="
M 162.00 329.00 
C 157.19 330.32 144.81 330.32 140.00 329.00
C 144.82 331.10 157.11 331.13 162.00 329.00 Z"/>
</g>
<g fill="None" fill-opacity="0.0" stroke="#454545" stroke-opacity="1.00" stroke-width="0.3"><path d="
M 233.00 329.00 
C 228.65 330.19 215.21 330.53 211.00 329.00
C 215.35 331.40 228.49 330.96 233.00 329.00 Z"/>
</g>
<g fill="None" fill-opacity="0.0" stroke="#454545" stroke-opacity="1.00" stroke-width="0.3"><path d="
M 304.00 329.00 
C 299.58 330.21 286.30 330.51 282.00 329.00
C 286.44 331.35 299.42 330.99 304.00 329.00 Z"/>
</g>
<g fill="None" fill-opacity="0.0" stroke="#FFFFFF" stroke-opacity="0.82" stroke-width="0.3"><path d="
M 209.00 496.00 
C 203.90 495.01 206.06 498.68 209.00 496.00 Z"/>
</g>
<g fill="None" fill-opacity="0.0" stroke="#FFFFFF" stroke-opacity="0.82" stroke-width="0.3"><path d="
M 294.00 496.00 
C 288.90 495.02 291.06 498.68 294.00 496.00 Z"/>
</g>
<g fill="None" fill-opacity="0.0" stroke="#FFFFFF" stroke-opacity="0.82" stroke-width="0.3"><path d="
M 289.00 497.00 
C 282.81 495.90 285.01 499.80 289.00 497.00 Z"/>
</g>
<g fill="None" fill-opacity="0.0" stroke="#FFFFFF" stroke-opacity="0.80" stroke-width="0.3"><path d="
M 224.00 498.00 
C 217.81 496.91 220.01 500.79 224.00 498.00 Z"/>
</g>
<g fill="None" fill-opacity="0.0" stroke="#FFFFFF" stroke-opacity="0.82" stroke-width="0.3"><path d="
M 281.00 498.00 
C 273.74 496.83 275.95 500.87 281.00 498.00 Z"/>
</g>
<g fill="None" fill-opacity="0.0" stroke="#FFFFFF" stroke-opacity="0.48" stroke-width="0.3"><path d="
M 229.00 500.00 
L 233.00 500.00
C 233.00 499.50 233.00 499.00 233.00 499.00
C 231.75 499.00 229.53 498.60 229.00 500.00 Z"/>
</g>
<g fill="None" fill-opacity="0.0" stroke="#FFFFFF" stroke-opacity="0.81" stroke-width="0.3"><path d="
M 233.00 500.00 
L 237.00 500.00
C 236.72 498.73 233.95 498.57 233.00 499.00
C 233.00 499.00 233.00 499.50 233.00 500.00 Z"/>
</g>
<g fill="None" fill-opacity="0.0" stroke="#FFFFFF" stroke-opacity="0.57" stroke-width="0.3"><path d="
M 265.00 500.00 
L 271.00 500.00
C 270.04 498.31 266.03 498.57 265.00 500.00 Z"/>
</g>
<g fill="#FEFEFE" fill-opacity="1.00" stroke="None">
<path d="
M 0.00 229.00 
C 1.40 229.53 1.00 231.75 1.00 233.00
C 1.43 233.95 1.27 236.72 0.00 237.00
L 0.00 265.00
C 1.43 266.03 1.69 270.04 0.00 271.00
L 0.00 500.00
L 229.00 500.00
C 229.53 498.60 231.75 499.00 233.00 499.00
C 233.95 498.57 236.72 498.73 237.00 500.00
L 265.00 500.00
C 266.03 498.57 270.04 498.31 271.00 500.00
L 500.00 500.00
L 500.00 271.00
C 498.60 270.47 499.00 268.25 499.00 267.00
C 498.57 266.05 498.73 263.28 500.00 263.00
L 500.00 235.00
C 498.57 233.97 498.31 229.96 500.00 229.00
L 500.00 0.00
L 271.00 0.00
C 270.47 1.40 268.25 1.00 267.00 1.00
C 266.05 1.43 263.28 1.27 263.00 0.00
L 235.00 0.00
C 233.97 1.43 229.96 1.69 229.00 0.00
L 0.00 0.00
L 0.00 229.00
M 225.00 1.00 
C 219.95 3.87 217.74 -0.17 225.00 1.00
M 281.00 1.00 
C 277.01 3.79 274.81 -0.10 281.00 1.00
M 216.00 2.00 
C 212.01 4.79 209.81 0.90 216.00 2.00
M 210.00 3.00 
C 207.06 5.68 204.90 2.01 210.00 3.00
M 295.00 3.00 
C 292.06 5.68 289.90 2.01 295.00 3.00
M 106.00 171.00 
C 107.21 170.96 108.81 171.59 109.00 173.00
C 109.07 173.49 109.00 174.00 109.00 174.00
C 111.34 177.17 110.00 184.85 110.00 189.00
C 110.00 192.56 110.76 197.25 109.00 200.00
C 107.87 201.77 104.94 202.45 103.00 203.00
C 99.95 203.86 97.97 203.74 95.00 203.00
C 92.70 202.95 90.96 202.13 89.00 201.00
C 88.36 200.63 87.60 200.37 87.00 200.00
C 85.39 199.02 83.82 197.68 83.00 196.00
C 82.80 195.60 83.00 195.00 83.00 195.00
C 81.72 193.76 81.53 192.73 81.00 191.00
C 80.00 187.75 79.92 183.89 80.00 180.00
C 80.19 170.66 83.10 170.00 92.00 170.00
C 95.47 170.00 103.69 168.60 106.00 171.00
M 4.00 205.00 
C 5.13 210.21 1.19 207.83 4.00 205.00
M 497.00 206.00 
C 498.13 211.21 494.19 208.83 497.00 206.00
M 498.00 211.00 
C 499.21 217.27 495.11 214.91 498.00 211.00
M 200.00 213.00 
C 207.67 213.49 214.71 215.51 221.00 220.00
C 223.31 221.65 225.46 223.68 227.00 226.00
C 228.25 227.88 228.83 230.08 230.00 232.00
C 231.82 231.40 232.15 229.44 233.00 228.00
C 234.77 225.69 236.71 223.70 239.00 222.00
C 245.49 217.17 253.94 213.55 262.00 213.00
C 265.19 212.43 267.89 212.49 271.00 213.00
C 277.91 213.37 285.22 216.15 291.00 220.00
C 293.70 221.80 296.16 224.43 298.00 227.00
C 302.23 232.92 305.03 239.84 306.00 247.00
C 306.32 248.18 306.94 249.27 307.00 251.00
C 307.05 252.33 307.00 253.67 307.00 255.00
C 308.41 265.34 309.10 278.98 308.00 290.00 C 306.90 301.02 311.23 316.28 307.00 326.00
C 305.97 328.37 306.40 327.96 304.00 329.00
C 299.42 330.99 286.44 331.35 282.00 329.00
C 279.93 327.90 279.74 326.94 279.00 325.00
C 275.30 315.28 278.97 302.93 278.00 292.00 C 277.03 281.07 278.42 268.13 278.00 257.00
C 277.81 251.93 276.86 248.12 274.00 244.00
C 273.21 243.03 270.92 240.72 270.00 240.00
C 267.42 238.28 264.90 237.72 262.00 237.00
C 259.31 236.67 255.69 236.64 253.00 237.00
C 242.35 239.76 237.41 248.32 237.00 259.00
C 236.59 269.80 238.12 282.40 237.00 293.00 C 235.88 303.60 240.02 316.76 236.00 326.00
C 234.97 328.37 235.40 327.96 233.00 329.00
C 228.49 330.96 215.35 331.40 211.00 329.00
C 204.55 325.44 208.99 314.84 208.00 308.00 C 207.01 301.16 208.53 291.53 208.00 284.00 C 207.47 276.47 208.45 266.72 208.00 259.00
C 207.85 258.11 207.16 256.41 207.00 255.00
C 206.58 251.33 205.97 248.21 204.00 245.00
C 203.13 243.79 200.14 240.89 199.00 240.00
C 196.42 238.28 193.90 237.72 191.00 237.00
C 188.31 236.67 184.69 236.64 182.00 237.00
C 171.35 239.76 166.41 248.32 166.00 259.00
C 165.59 269.80 167.12 282.40 166.00 293.00 C 164.88 303.60 169.02 316.76 165.00 326.00
C 163.97 328.37 164.40 327.96 162.00 329.00
C 157.11 331.13 144.82 331.10 140.00 329.00
C 137.63 327.97 138.04 328.40 137.00 326.00
C 132.84 316.43 136.74 301.96 136.00 291.00 C 135.26 280.04 135.29 266.06 136.00 255.00 C 136.71 243.94 133.02 228.77 137.00 219.00
C 139.73 212.29 161.14 212.59 164.00 219.00
C 164.73 220.64 165.48 222.73 165.00 225.00
C 167.04 224.19 167.97 221.73 170.00 221.00
C 176.72 216.00 184.61 213.29 193.00 213.00
C 195.54 212.64 197.48 212.55 200.00 213.00
M 104.00 329.00 
C 98.99 331.04 86.92 331.15 82.00 329.00
C 74.23 325.61 78.80 312.16 78.00 304.00 C 77.20 295.84 78.10 283.86 78.00 275.00 C 77.90 266.14 77.48 255.03 78.00 246.00
C 78.11 244.15 78.58 243.30 79.00 242.00
C 81.48 228.17 98.86 223.38 108.00 215.00
C 107.61 227.71 108.52 241.39 108.00 254.00 C 107.48 266.61 109.00 280.74 108.00 293.00 C 107.00 305.26 111.89 320.89 104.00 329.00
M 2.00 219.00 
C 3.21 225.27 -0.90 222.91 2.00 219.00
M 499.00 219.00 
C 500.26 226.32 496.06 223.99 499.00 219.00
M 337.00 275.00 
C 343.85 276.70 346.32 282.23 350.00 288.00
C 351.27 287.44 351.25 285.15 353.00 285.00
C 355.48 282.09 356.48 276.88 360.00 275.00
C 362.32 273.76 368.86 272.86 371.00 275.00
C 373.84 277.84 363.97 289.82 362.00 293.00
C 360.88 294.81 359.86 296.98 358.00 298.00
C 362.81 306.68 369.20 314.33 374.00 323.00
C 371.10 324.90 367.30 323.62 364.00 324.00
C 355.95 323.10 354.98 314.34 349.00 310.00
C 348.32 311.88 346.98 313.32 346.00 315.00
C 343.46 318.94 341.82 323.18 337.00 324.00
C 325.69 325.91 326.04 322.16 331.00 315.00
C 332.90 312.26 335.27 309.55 337.00 307.00
C 338.61 304.62 339.47 300.79 342.00 299.00
C 336.97 292.23 331.52 284.62 328.00 277.00
C 327.60 276.14 325.06 275.75 326.00 274.00
C 329.50 274.62 334.32 272.73 337.00 275.00
M 403.00 275.00 
C 411.54 275.46 417.43 279.64 419.00 288.00
C 419.45 290.42 419.55 291.59 419.00 294.00
C 418.49 298.96 415.57 299.50 413.00 303.00
C 410.67 306.17 413.32 312.07 417.92 317.08 C 422.53 322.08 415.01 327.35 408.33 323.67 C 401.65 319.99 404.18 312.84 400.00 308.00
C 397.81 306.18 394.59 307.34 392.00 307.00
C 395.85 314.79 389.75 329.42 381.00 324.00 C 372.25 318.58 383.41 305.31 379.00 298.00
C 379.00 294.80 378.57 288.94 379.00 286.00 C 379.43 283.06 377.39 276.29 380.00 275.00
C 383.63 271.37 398.78 274.31 403.00 275.00
M 2.00 275.00 
C 3.26 282.32 -0.94 279.99 2.00 275.00
M 499.00 276.00 
C 500.21 282.27 496.11 279.91 499.00 276.00
M 3.00 284.00 
C 4.21 290.27 0.10 287.91 3.00 284.00
M 4.00 290.00 
C 5.13 295.21 1.19 292.83 4.00 290.00
M 497.00 291.00 
C 498.13 296.21 494.19 293.83 497.00 291.00
M 209.00 496.00 
C 206.06 498.68 203.90 495.01 209.00 496.00
M 294.00 496.00 
C 291.06 498.68 288.90 495.02 294.00 496.00
M 289.00 497.00 
C 285.01 499.80 282.81 495.90 289.00 497.00
M 224.00 498.00 
C 220.01 500.79 217.81 496.91 224.00 498.00
M 281.00 498.00 
C 275.95 500.87 273.74 496.83 281.00 498.00 Z"/>
</g>
<g fill="#FFFFFF" fill-opacity="0.57" stroke="None">
<path d="
M 235.00 0.00 
L 229.00 0.00
C 229.96 1.69 233.97 1.43 235.00 0.00 Z"/>
</g>
<g fill="#FFFFFF" fill-opacity="0.81" stroke="None">
<path d="
M 267.00 1.00 
C 266.81 0.91 267.00 0.00 267.00 0.00
L 263.00 0.00
C 263.28 1.27 266.05 1.43 267.00 1.00 Z"/>
</g>
<g fill="#FFFFFF" fill-opacity="0.48" stroke="None">
<path d="
M 267.00 1.00 
C 268.25 1.00 270.47 1.40 271.00 0.00
L 267.00 0.00
C 267.00 0.00 266.81 0.91 267.00 1.00 Z"/>
</g>
<g fill="#FFFFFF" fill-opacity="0.82" stroke="None">
<path d="
M 225.00 1.00 
C 217.74 -0.17 219.95 3.87 225.00 1.00 Z"/>
</g>
<g fill="#FFFFFF" fill-opacity="0.80" stroke="None">
<path d="
M 281.00 1.00 
C 274.81 -0.10 277.01 3.79 281.00 1.00 Z"/>
</g>
<g fill="#FFFFFF" fill-opacity="0.82" stroke="None">
<path d="
M 216.00 2.00 
C 209.81 0.90 212.01 4.79 216.00 2.00 Z"/>
</g>
<g fill="#FFFFFF" fill-opacity="0.82" stroke="None">
<path d="
M 210.00 3.00 
C 204.90 2.01 207.06 5.68 210.00 3.00 Z"/>
</g>
<g fill="#FFFFFF" fill-opacity="0.82" stroke="None">
<path d="
M 295.00 3.00 
C 289.90 2.01 292.06 5.68 295.00 3.00 Z"/>
</g>
<g fill="#70D9F5" fill-opacity="1.00" stroke="None">
<path d="
M 80.00 180.00 
C 80.95 177.44 89.78 170.52 92.00 170.00
C 83.10 170.00 80.19 170.66 80.00 180.00 Z"/>
</g>
<g fill="#58B3F2" fill-opacity="1.00" stroke="None">
<path d="
M 80.00 180.00 
C 79.92 183.89 80.00 187.75 81.00 191.00
C 80.81 185.19 87.64 183.45 90.75 178.75 C 93.86 174.05 99.13 170.44 105.00 171.00
C 105.50 171.05 106.00 171.00 106.00 171.00
C 103.69 168.60 95.47 170.00 92.00 170.00
C 89.78 170.52 80.95 177.44 80.00 180.00 Z"/>
</g>
<g fill="#408CF0" fill-opacity="1.00" stroke="None">
<path d="
M 81.00 191.00 
C 81.53 192.73 81.72 193.76 83.00 195.00
C 84.68 186.41 99.94 178.23 105.00 171.00
C 99.13 170.44 93.86 174.05 90.75 178.75 C 87.64 183.45 80.81 185.19 81.00 191.00 Z"/>
</g>
<g fill="#3272EF" fill-opacity="1.00" stroke="None">
<path d="
M 83.00 195.00 
C 83.00 195.00 82.80 195.60 83.00 196.00
C 83.25 196.51 84.64 196.69 85.00 197.00
C 88.64 195.29 91.55 186.40 96.25 184.25 C 100.94 182.10 103.55 173.58 109.00 173.00
C 108.81 171.59 107.21 170.96 106.00 171.00
C 106.00 171.00 105.50 171.05 105.00 171.00
C 99.94 178.23 84.68 186.41 83.00 195.00 Z"/>
</g>
<g fill="#2759DB" fill-opacity="1.00" stroke="None">
<path d="
M 85.00 197.00 
C 85.79 197.67 86.27 199.38 87.00 200.00
C 87.60 200.37 88.36 200.63 89.00 201.00
C 90.98 200.07 95.95 192.41 98.25 190.25 C 100.54 188.09 108.14 182.62 109.00 180.00
C 109.00 178.00 109.00 176.00 109.00 174.00
C 109.00 174.00 109.07 173.49 109.00 173.00
C 103.55 173.58 100.94 182.10 96.25 184.25 C 91.55 186.40 88.64 195.29 85.00 197.00 Z"/>
</g>
<g fill="#768BCA" fill-opacity="1.00" stroke="None">
<path d="
M 109.00 180.00 
C 109.00 183.00 109.00 186.00 109.00 189.00
C 109.25 188.75 110.00 189.00 110.00 189.00
C 110.00 184.85 111.34 177.17 109.00 174.00
C 109.00 176.00 109.00 178.00 109.00 180.00 Z"/>
</g>
<g fill="#213F9A" fill-opacity="1.00" stroke="None">
<path d="
M 89.00 201.00 
C 90.96 202.13 92.70 202.95 95.00 203.00
C 95.50 203.01 96.00 203.00 96.00 203.00
C 99.22 198.40 104.45 193.17 109.00 190.00
C 109.00 189.50 109.00 189.00 109.00 189.00
C 109.00 186.00 109.00 183.00 109.00 180.00
C 108.14 182.62 100.54 188.09 98.25 190.25 C 95.95 192.41 90.98 200.07 89.00 201.00 Z"/>
</g>
<g fill="#6F7592" fill-opacity="1.00" stroke="None">
<path d="
M 109.00 190.00 
C 109.00 192.59 110.01 197.66 109.00 200.00
C 110.76 197.25 110.00 192.56 110.00 189.00
C 110.00 189.00 109.25 188.75 109.00 189.00
C 109.00 189.00 109.00 189.50 109.00 190.00 Z"/>
</g>
<g fill="#1C2759" fill-opacity="1.00" stroke="None">
<path d="
M 96.00 203.00 
C 98.25 203.00 100.77 203.32 103.00 203.00
C 104.94 202.45 107.87 201.77 109.00 200.00
C 110.01 197.66 109.00 192.59 109.00 190.00
C 104.45 193.17 99.22 198.40 96.00 203.00 Z"/>
</g>
<g fill="#C2D1F7" fill-opacity="1.00" stroke="None">
<path d="
M 87.00 200.00 
C 86.27 199.38 85.79 197.67 85.00 197.00
C 84.64 196.69 83.25 196.51 83.00 196.00
C 83.82 197.68 85.39 199.02 87.00 200.00 Z"/>
</g>
<g fill="#8B90AA" fill-opacity="1.00" stroke="None">
<path d="
M 103.00 203.00 
C 100.77 203.32 98.25 203.00 96.00 203.00
C 96.00 203.00 95.50 203.01 95.00 203.00
C 97.97 203.74 99.95 203.86 103.00 203.00 Z"/>
</g>
<g fill="#FFFFFF" fill-opacity="0.82" stroke="None">
<path d="
M 4.00 205.00 
C 1.19 207.83 5.13 210.21 4.00 205.00 Z"/>
</g>
<g fill="#FFFFFF" fill-opacity="0.82" stroke="None">
<path d="
M 497.00 206.00 
C 494.19 208.83 498.13 211.21 497.00 206.00 Z"/>
</g>
<g fill="#FFFFFF" fill-opacity="0.82" stroke="None">
<path d="
M 498.00 211.00 
C 495.11 214.91 499.21 217.27 498.00 211.00 Z"/>
</g>
<g fill="#B9B9B9" fill-opacity="1.00" stroke="None">
<path d="
M 193.00 213.00 
C 195.30 212.92 197.71 212.85 200.00 213.00
C 197.48 212.55 195.54 212.64 193.00 213.00 Z"/>
</g>
<g fill="#C1C1C1" fill-opacity="1.00" stroke="None">
<path d="
M 262.00 213.00 
C 264.92 212.80 268.07 212.84 271.00 213.00
C 267.89 212.49 265.19 212.43 262.00 213.00 Z"/>
</g>
<g fill="#000000" fill-opacity="1.00" stroke="None">
<path d="
M 170.00 221.00 
C 167.98 222.76 166.67 225.96 164.00 227.00
C 164.00 224.33 164.00 221.67 164.00 219.00
C 161.14 212.59 139.73 212.29 137.00 219.00
C 134.29 229.78 137.63 242.76 137.00 254.00 C 136.37 265.24 136.13 278.73 137.00 290.00 C 137.87 301.27 134.04 315.18 137.00 326.00
C 138.04 328.40 137.63 327.97 140.00 329.00
C 144.81 330.32 157.19 330.32 162.00 329.00
C 164.40 327.96 163.97 328.37 165.00 326.00
C 167.83 315.66 163.93 302.75 165.00 292.00 C 166.07 281.25 164.55 269.12 166.00 259.00
C 166.41 248.32 171.35 239.76 182.00 237.00
C 185.29 236.15 187.77 236.20 191.00 237.00
C 193.90 237.72 196.42 238.28 199.00 240.00
C 200.98 241.32 202.78 243.01 204.00 245.00
C 205.97 248.21 206.58 251.33 207.00 255.00
C 207.28 256.12 207.90 257.34 208.00 259.00
C 208.45 266.72 207.47 276.47 208.00 284.00 C 208.53 291.53 207.01 301.16 208.00 308.00 C 208.99 314.84 204.55 325.44 211.00 329.00
C 215.21 330.53 228.65 330.19 233.00 329.00
C 235.40 327.96 234.97 328.37 236.00 326.00
C 238.83 315.66 234.93 302.75 236.00 292.00 C 237.07 281.25 235.55 269.12 237.00 259.00
C 237.41 248.32 242.35 239.76 253.00 237.00
C 256.29 236.15 258.77 236.20 262.00 237.00
C 264.90 237.72 267.42 238.28 270.00 240.00
C 271.71 241.14 272.87 242.37 274.00 244.00
C 276.86 248.12 277.81 251.93 278.00 257.00
C 279.48 267.39 278.00 278.96 279.00 290.00 C 280.00 301.04 276.49 314.21 279.00 325.00
C 279.74 326.94 279.93 327.90 282.00 329.00
C 286.30 330.51 299.58 330.21 304.00 329.00
C 306.40 327.96 305.97 328.37 307.00 326.00
C 309.97 315.16 305.93 302.35 307.00 291.00 C 308.07 279.65 307.00 266.51 307.00 255.00
C 307.00 253.67 307.05 252.33 307.00 251.00
C 306.88 250.20 306.18 248.31 306.00 247.00
C 305.03 239.84 302.23 232.92 298.00 227.00
C 296.33 225.01 292.97 221.54 291.00 220.00
C 285.22 216.15 277.91 213.37 271.00 213.00
C 268.07 212.84 264.92 212.80 262.00 213.00
C 253.94 213.55 245.49 217.17 239.00 222.00
C 237.17 223.59 234.58 226.25 233.00 228.00
C 232.15 229.44 231.82 231.40 230.00 232.00
C 228.83 230.08 228.25 227.88 227.00 226.00
C 225.68 224.32 222.60 221.34 221.00 220.00
C 214.71 215.51 207.67 213.49 200.00 213.00
C 197.71 212.85 195.30 212.92 193.00 213.00
C 184.61 213.29 176.72 216.00 170.00 221.00 Z"/>
</g>
<g fill="#000000" fill-opacity="1.00" stroke="None">
<path d="
M 79.00 242.00 
C 78.77 243.27 78.14 245.22 78.00 246.00
C 77.48 255.03 77.90 266.14 78.00 275.00 C 78.10 283.86 77.20 295.84 78.00 304.00 C 78.80 312.16 74.23 325.61 82.00 329.00
C 86.92 330.35 99.05 330.25 104.00 329.00
C 111.89 320.89 107.00 305.26 108.00 293.00 C 109.00 280.74 107.48 266.61 108.00 254.00 C 108.52 241.39 107.61 227.71 108.00 215.00
C 98.86 223.38 81.48 228.17 79.00 242.00 Z"/>
</g>
<g fill="#FFFFFF" fill-opacity="0.80" stroke="None">
<path d="
M 2.00 219.00 
C -0.90 222.91 3.21 225.27 2.00 219.00 Z"/>
</g>
<g fill="#5F5F5F" fill-opacity="1.00" stroke="None">
<path d="
M 137.00 326.00 
C 134.04 315.18 137.87 301.27 137.00 290.00 C 136.13 278.73 136.37 265.24 137.00 254.00 C 137.63 242.76 134.29 229.78 137.00 219.00
C 133.02 228.77 136.71 243.94 136.00 255.00 C 135.29 266.06 135.26 280.04 136.00 291.00 C 136.74 301.96 132.84 316.43 137.00 326.00 Z"/>
</g>
<g fill="#C7C8C7" fill-opacity="1.00" stroke="None">
<path d="
M 170.00 221.00 
C 167.97 221.73 167.04 224.19 165.00 225.00
C 165.48 222.73 164.73 220.64 164.00 219.00
C 164.00 221.67 164.00 224.33 164.00 227.00
C 166.67 225.96 167.98 222.76 170.00 221.00 Z"/>
</g>
<g fill="#FFFFFF" fill-opacity="0.82" stroke="None">
<path d="
M 499.00 219.00 
C 496.06 223.99 500.26 226.32 499.00 219.00 Z"/>
</g>
<g fill="#A4A4A4" fill-opacity="1.00" stroke="None">
<path d="
M 227.00 226.00 
C 225.46 223.68 223.31 221.65 221.00 220.00
C 222.60 221.34 225.68 224.32 227.00 226.00 Z"/>
</g>
<g fill="#A3A3A3" fill-opacity="1.00" stroke="None">
<path d="
M 298.00 227.00 
C 296.16 224.43 293.70 221.80 291.00 220.00
C 292.97 221.54 296.33 225.01 298.00 227.00 Z"/>
</g>
<g fill="#B6B6B6" fill-opacity="1.00" stroke="None">
<path d="
M 233.00 228.00 
C 234.58 226.25 237.17 223.59 239.00 222.00
C 236.71 223.70 234.77 225.69 233.00 228.00 Z"/>
</g>
<g fill="#FFFFFF" fill-opacity="0.48" stroke="None">
<path d="
M 0.00 233.00 
C 0.50 233.00 1.00 233.00 1.00 233.00
C 1.00 231.75 1.40 229.53 0.00 229.00
L 0.00 233.00 Z"/>
</g>
<g fill="#FFFFFF" fill-opacity="0.57" stroke="None">
<path d="
M 500.00 235.00 
L 500.00 229.00
C 498.31 229.96 498.57 233.97 500.00 235.00 Z"/>
</g>
<g fill="#FFFFFF" fill-opacity="0.81" stroke="None">
<path d="
M 0.00 237.00 
C 1.27 236.72 1.43 233.95 1.00 233.00
C 1.00 233.00 0.50 233.00 0.00 233.00
L 0.00 237.00 Z"/>
</g>
<g fill="#787878" fill-opacity="1.00" stroke="None">
<path d="
M 182.00 237.00 
C 184.69 236.64 188.31 236.67 191.00 237.00
C 187.77 236.20 185.29 236.15 182.00 237.00 Z"/>
</g>
<g fill="#787878" fill-opacity="1.00" stroke="None">
<path d="
M 253.00 237.00 
C 255.69 236.64 259.31 236.67 262.00 237.00
C 258.77 236.20 256.29 236.15 253.00 237.00 Z"/>
</g>
<g fill="#7A7A7A" fill-opacity="1.00" stroke="None">
<path d="
M 204.00 245.00 
C 202.78 243.01 200.98 241.32 199.00 240.00
C 200.14 240.89 203.13 243.79 204.00 245.00 Z"/>
</g>
<g fill="#979797" fill-opacity="1.00" stroke="None">
<path d="
M 274.00 244.00 
C 272.87 242.37 271.71 241.14 270.00 240.00
C 270.92 240.72 273.21 243.03 274.00 244.00 Z"/>
</g>
<g fill="#656565" fill-opacity="1.00" stroke="None">
<path d="
M 78.00 246.00 
C 78.14 245.22 78.77 243.27 79.00 242.00
C 78.58 243.30 78.11 244.15 78.00 246.00 Z"/>
</g>
<g fill="#636363" fill-opacity="1.00" stroke="None">
<path d="
M 307.00 251.00 
C 306.94 249.27 306.32 248.18 306.00 247.00
C 306.18 248.31 306.88 250.20 307.00 251.00 Z"/>
</g>
<g fill="#858585" fill-opacity="1.00" stroke="None">
<path d="
M 208.00 259.00 
C 207.90 257.34 207.28 256.12 207.00 255.00
C 207.16 256.41 207.85 258.11 208.00 259.00 Z"/>
</g>
<g fill="#828282" fill-opacity="1.00" stroke="None">
<path d="
M 307.00 326.00 
C 311.23 316.28 306.90 301.02 308.00 290.00 C 309.10 278.98 308.41 265.34 307.00 255.00
C 307.00 266.51 308.07 279.65 307.00 291.00 C 305.93 302.35 309.97 315.16 307.00 326.00 Z"/>
</g>
<g fill="#ADADAD" fill-opacity="1.00" stroke="None">
<path d="
M 279.00 325.00 
C 276.49 314.21 280.00 301.04 279.00 290.00 C 278.00 278.96 279.48 267.39 278.00 257.00
C 278.42 268.13 277.03 281.07 278.00 292.00 C 278.97 302.93 275.30 315.28 279.00 325.00 Z"/>
</g>
<g fill="#6E6E6E" fill-opacity="1.00" stroke="None">
<path d="
M 165.00 326.00 
C 169.02 316.76 164.88 303.60 166.00 293.00 C 167.12 282.40 165.59 269.80 166.00 259.00
C 164.55 269.12 166.07 281.25 165.00 292.00 C 163.93 302.75 167.83 315.66 165.00 326.00 Z"/>
</g>
<g fill="#5E5E5E" fill-opacity="1.00" stroke="None">
<path d="
M 236.00 326.00 
C 240.02 316.76 235.88 303.60 237.00 293.00 C 238.12 282.40 236.59 269.80 237.00 259.00
C 235.55 269.12 237.07 281.25 236.00 292.00 C 234.93 302.75 238.83 315.66 236.00 326.00 Z"/>
</g>
<g fill="#FFFFFF" fill-opacity="0.81" stroke="None">
<path d="
M 499.00 267.00 
C 499.09 266.81 500.00 267.00 500.00 267.00
L 500.00 263.00
C 498.73 263.28 498.57 266.05 499.00 267.00 Z"/>
</g>
<g fill="#FFFFFF" fill-opacity="0.57" stroke="None">
<path d="
M 0.00 271.00 
C 1.69 270.04 1.43 266.03 0.00 265.00
L 0.00 271.00 Z"/>
</g>
<g fill="#FFFFFF" fill-opacity="0.48" stroke="None">
<path d="
M 500.00 271.00 
L 500.00 267.00
C 500.00 267.00 499.09 266.81 499.00 267.00
C 499.00 268.25 498.60 270.47 500.00 271.00 Z"/>
</g>
<g fill="#94BDF7" fill-opacity="1.00" stroke="None">
<path d="
M 328.00 277.00 
C 327.83 273.94 333.35 274.55 337.00 275.00
C 334.32 272.73 329.50 274.62 326.00 274.00
C 325.06 275.75 327.60 276.14 328.00 277.00 Z"/>
</g>
<g fill="#A0AFD9" fill-opacity="1.00" stroke="None">
<path d="
M 360.00 275.00 
C 361.45 274.49 369.77 274.20 371.00 275.00
C 368.86 272.86 362.32 273.76 360.00 275.00 Z"/>
</g>
<g fill="#A3B5DD" fill-opacity="1.00" stroke="None">
<path d="
M 380.00 275.00 
C 380.60 274.71 382.32 275.00 383.00 275.00
C 389.63 275.00 396.38 274.64 403.00 275.00
C 398.78 274.31 383.63 271.37 380.00 275.00 Z"/>
</g>
<g fill="#FFFFFF" fill-opacity="0.82" stroke="None">
<path d="
M 2.00 275.00 
C -0.94 279.99 3.26 282.32 2.00 275.00 Z"/>
</g>
<g fill="#2F69EE" fill-opacity="1.00" stroke="None">
<path d="
M 328.00 277.00 
C 331.52 284.62 336.97 292.23 342.00 299.00
C 344.25 302.02 351.43 309.07 353.75 311.25 C 356.07 313.43 366.14 322.94 364.00 324.00
C 367.30 323.62 371.10 324.90 374.00 323.00
C 369.20 314.33 362.81 306.68 358.00 298.00
C 359.86 296.98 360.88 294.81 362.00 293.00
C 359.53 294.38 352.98 287.88 353.00 285.00
C 351.25 285.15 351.27 287.44 350.00 288.00
C 346.32 282.23 343.85 276.70 337.00 275.00
C 333.35 274.55 327.83 273.94 328.00 277.00 Z"/>
</g>
<g fill="#2756D3" fill-opacity="1.00" stroke="None">
<path d="
M 353.00 285.00 
C 352.98 287.88 359.53 294.38 362.00 293.00
C 363.97 289.82 373.84 277.84 371.00 275.00
C 369.77 274.20 361.45 274.49 360.00 275.00
C 356.48 276.88 355.48 282.09 353.00 285.00 Z"/>
</g>
<g fill="#2449B2" fill-opacity="1.00" stroke="None">
<path d="
M 379.00 298.00 
C 380.51 302.10 388.74 304.35 390.00 309.00
C 391.35 305.47 398.10 304.35 400.00 308.00
C 404.18 312.84 401.65 319.99 408.33 323.67 C 415.01 327.35 422.53 322.08 417.92 317.08 C 413.32 312.07 410.67 306.17 413.00 303.00
C 411.45 299.01 406.57 298.34 406.00 294.00
C 405.12 295.79 402.48 295.58 401.00 296.00
C 399.02 296.56 393.77 298.53 392.00 296.00
C 390.28 293.54 393.29 287.76 392.00 285.00
C 395.33 285.00 398.67 285.00 402.00 285.00
C 398.83 283.61 393.41 284.45 390.26 282.74 C 387.11 281.03 385.86 276.27 383.00 275.00
C 382.32 275.00 380.60 274.71 380.00 275.00
C 377.39 276.29 379.43 283.06 379.00 286.00 C 378.57 288.94 379.00 294.80 379.00 298.00 Z"/>
</g>
<g fill="#1F347C" fill-opacity="1.00" stroke="None">
<path d="
M 402.00 285.00 
C 406.45 286.94 405.41 289.44 406.00 294.00
C 406.57 298.34 411.45 299.01 413.00 303.00
C 415.57 299.50 418.49 298.96 419.00 294.00
C 419.20 292.11 419.14 289.90 419.00 288.00
C 417.43 279.64 411.54 275.46 403.00 275.00
C 396.38 274.64 389.63 275.00 383.00 275.00
C 385.86 276.27 387.11 281.03 390.26 282.74 C 393.41 284.45 398.83 283.61 402.00 285.00 Z"/>
</g>
<g fill="#FFFFFF" fill-opacity="0.80" stroke="None">
<path d="
M 499.00 276.00 
C 496.11 279.91 500.21 282.27 499.00 276.00 Z"/>
</g>
<g fill="#FFFFFF" fill-opacity="0.83" stroke="None">
<path d="
M 3.00 284.00 
C 0.10 287.91 4.21 290.27 3.00 284.00 Z"/>
</g>
<g fill="#FBFCFD" fill-opacity="1.00" stroke="None">
<path d="
M 392.00 296.00 
C 394.95 295.66 398.07 296.45 401.00 296.00
C 402.48 295.58 405.12 295.79 406.00 294.00
C 405.41 289.44 406.45 286.94 402.00 285.00
C 398.67 285.00 395.33 285.00 392.00 285.00
C 393.29 287.76 390.28 293.54 392.00 296.00 Z"/>
</g>
<g fill="#838AA9" fill-opacity="1.00" stroke="None">
<path d="
M 419.00 294.00 
C 419.55 291.59 419.45 290.42 419.00 288.00
C 419.14 289.90 419.20 292.11 419.00 294.00 Z"/>
</g>
<g fill="#FFFFFF" fill-opacity="0.82" stroke="None">
<path d="
M 4.00 290.00 
C 1.19 292.83 5.13 295.21 4.00 290.00 Z"/>
</g>
<g fill="#FFFFFF" fill-opacity="0.82" stroke="None">
<path d="
M 497.00 291.00 
C 494.19 293.83 498.13 296.21 497.00 291.00 Z"/>
</g>
<g fill="#6684D4" fill-opacity="1.00" stroke="None">
<path d="
M 401.00 296.00 
C 398.07 296.45 394.95 295.66 392.00 296.00
C 393.77 298.53 399.02 296.56 401.00 296.00 Z"/>
</g>
<g fill="#295DE2" fill-opacity="1.00" stroke="None">
<path d="
M 400.00 308.00 
C 398.10 304.35 391.35 305.47 390.00 309.00
C 388.74 304.35 380.51 302.10 379.00 298.00
C 383.41 305.31 372.25 318.58 381.00 324.00 C 389.75 329.42 395.85 314.79 392.00 307.00
C 394.59 307.34 397.81 306.18 400.00 308.00 Z"/>
</g>
<g fill="#3B7FEF" fill-opacity="1.00" stroke="None">
<path d="
M 337.00 307.00 
C 337.21 308.96 344.12 315.45 346.00 315.00
C 346.98 313.32 348.32 311.88 349.00 310.00
C 354.98 314.34 355.95 323.10 364.00 324.00
C 366.14 322.94 356.07 313.43 353.75 311.25 C 351.43 309.07 344.25 302.02 342.00 299.00
C 339.47 300.79 338.61 304.62 337.00 307.00 Z"/>
</g>
<g fill="#4EA3F1" fill-opacity="1.00" stroke="None">
<path d="
M 331.00 315.00 
C 331.12 317.07 340.04 322.14 337.00 324.00
C 341.82 323.18 343.46 318.94 346.00 315.00
C 344.12 315.45 337.21 308.96 337.00 307.00
C 335.27 309.55 332.90 312.26 331.00 315.00 Z"/>
</g>
<g fill="#66C9F3" fill-opacity="1.00" stroke="None">
<path d="
M 337.00 324.00 
C 340.04 322.14 331.12 317.07 331.00 315.00
C 326.04 322.16 325.69 325.91 337.00 324.00 Z"/>
</g>
<g fill="#424242" fill-opacity="1.00" stroke="None">
<path d="
M 104.00 329.00 
C 99.05 330.25 86.92 330.35 82.00 329.00
C 86.92 331.15 98.99 331.04 104.00 329.00 Z"/>
</g>
<g fill="#444444" fill-opacity="1.00" stroke="None">
<path d="
M 162.00 329.00 
C 157.19 330.32 144.81 330.32 140.00 329.00
C 144.82 331.10 157.11 331.13 162.00 329.00 Z"/>
</g>
<g fill="#454545" fill-opacity="1.00" stroke="None">
<path d="
M 233.00 329.00 
C 228.65 330.19 215.21 330.53 211.00 329.00
C 215.35 331.40 228.49 330.96 233.00 329.00 Z"/>
</g>
<g fill="#454545" fill-opacity="1.00" stroke="None">
<path d="
M 304.00 329.00 
C 299.58 330.21 286.30 330.51 282.00 329.00
C 286.44 331.35 299.42 330.99 304.00 329.00 Z"/>
</g>
<g fill="#FFFFFF" fill-opacity="0.82" stroke="None">
<path d="
M 209.00 496.00 
C 203.90 495.01 206.06 498.68 209.00 496.00 Z"/>
</g>
<g fill="#FFFFFF" fill-opacity="0.82" stroke="None">
<path d="
M 294.00 496.00 
C 288.90 495.02 291.06 498.68 294.00 496.00 Z"/>
</g>
<g fill="#FFFFFF" fill-opacity="0.82" stroke="None">
<path d="
M 289.00 497.00 
C 282.81 495.90 285.01 499.80 289.00 497.00 Z"/>
</g>
<g fill="#FFFFFF" fill-opacity="0.80" stroke="None">
<path d="
M 224.00 498.00 
C 217.81 496.91 220.01 500.79 224.00 498.00 Z"/>
</g>
<g fill="#FFFFFF" fill-opacity="0.82" stroke="None">
<path d="
M 281.00 498.00 
C 273.74 496.83 275.95 500.87 281.00 498.00 Z"/>
</g>
<g fill="#FFFFFF" fill-opacity="0.48" stroke="None">
<path d="
M 229.00 500.00 
L 233.00 500.00
C 233.00 499.50 233.00 499.00 233.00 499.00
C 231.75 499.00 229.53 498.60 229.00 500.00 Z"/>
</g>
<g fill="#FFFFFF" fill-opacity="0.81" stroke="None">
<path d="
M 233.00 500.00 
L 237.00 500.00
C 236.72 498.73 233.95 498.57 233.00 499.00
C 233.00 499.00 233.00 499.50 233.00 500.00 Z"/>
</g>
<g fill="#FFFFFF" fill-opacity="0.57" stroke="None">
<path d="
M 265.00 500.00 
L 271.00 500.00
C 270.04 498.31 266.03 498.57 265.00 500.00 Z"/>
</g>
</svg>