<svg width="129" height="60" viewBox="0 0 129 60" fill="none" xmlns="http://www.w3.org/2000/svg">
<path d="M0 28.8759V57.9949C0 59.1023 0.897761 60 2.00509 60H9.21305C10.3204 60 11.2181 59.1023 11.2181 57.9949V16.7341L3.35561 22.3535C1.24962 23.8593 0 26.2887 0 28.8759Z" fill="black"/>
<path d="M9.83609 0H2.62813C1.52081 0 0.623047 0.897761 0.623047 2.00509V5.44607C0.623047 11.2155 7.1454 14.5712 11.8386 11.2155V2.00509C11.8386 0.897761 10.9408 0 9.83351 0H9.83609Z" fill="url(#paint0_linear_2621_6135)"/>
<path d="M73.3083 27.2227C74.7753 28.8009 75.51 31.3363 75.51 34.8239V58.0053C75.51 58.5589 75.7041 59.0298 76.0922 59.4179C76.4802 59.806 76.9511 60 77.5048 60H84.3169C84.9249 60 85.4113 59.806 85.7709 59.4179C86.1305 59.0324 86.3116 58.5589 86.3116 58.0053V34.159C86.3116 28.2317 84.8706 23.7196 81.991 20.6149C79.1114 17.5129 75.3988 15.9631 70.8582 15.9631C68.033 15.9631 65.4018 16.641 62.9647 17.9993C60.5275 19.3576 58.644 21.1427 57.3142 23.3574C54.8771 18.4287 50.5849 15.9631 44.4351 15.9631C39.2839 15.9631 35.266 17.8466 32.3864 21.6136V18.7884C32.3864 18.2347 32.1924 17.7638 31.8043 17.3758C31.4162 16.9903 30.9454 16.7936 30.3917 16.7936H23.9108C23.3571 16.7936 22.8862 16.9877 22.4981 17.3758C22.1101 17.7638 21.916 18.2347 21.916 18.7884V58.0053C21.916 58.5589 22.1101 59.0298 22.4981 59.4179C22.8836 59.806 23.3571 60 23.9108 60H30.891C31.4447 60 31.9156 59.806 32.3037 59.4179C32.6917 59.0324 32.8858 58.5589 32.8858 58.0053V34.8239C32.8858 31.3907 33.6464 28.8707 35.1703 27.2641C36.6942 25.6574 38.5621 24.8554 40.7794 24.8554C43.1053 24.8554 45.0301 25.6445 46.554 27.2227C48.0779 28.8009 48.8385 31.3363 48.8385 34.8239V58.0053C48.8385 58.5589 49.0325 59.0298 49.4206 59.4179C49.8061 59.806 50.2796 60 50.8332 60H57.6454C58.199 60 58.6699 59.806 59.058 59.4179C59.4461 59.0324 59.6401 58.5589 59.6401 58.0053V34.8239C59.6401 31.3907 60.4007 28.8707 61.9246 27.2641C63.4485 25.6574 65.2906 24.8554 67.4509 24.8554C69.888 24.8554 71.8414 25.6445 73.3083 27.2227Z" fill="black"/>
<path d="M94.9786 39.2686L93.3486 39.2065L93.4392 39.3437V39.2686H94.9786Z" fill="url(#paint1_linear_2621_6135)"/>
<path d="M128.879 57.2523C128.879 57.1669 128.856 57.0686 128.804 56.9625L128.775 56.9133V57.5601C128.845 57.467 128.879 57.3635 128.879 57.2548V57.2523Z" fill="url(#paint2_linear_2621_6135)"/>
<path d="M99.3635 48.381L93.607 56.9369C93.5733 56.9887 93.5449 57.0404 93.5268 57.0922C93.5087 57.1465 93.5035 57.2008 93.5035 57.2526C93.5035 57.3949 93.5578 57.5217 93.6743 57.6381C93.7907 57.7545 93.9278 57.8088 94.083 57.8088H97.8862C98.1501 57.8088 98.3493 57.7442 98.4916 57.6122C98.6339 57.4803 98.7297 57.369 98.7814 57.2836L102.238 52.2127L105.723 57.2836C105.777 57.369 105.878 57.4803 106.028 57.6122C106.178 57.7442 106.385 57.8088 106.649 57.8088H110.584C110.745 57.8088 110.874 57.7545 110.98 57.6381C111.089 57.5242 111.14 57.3949 111.14 57.2526C111.14 57.2008 111.138 57.1491 111.128 57.0922C111.117 57.0404 111.097 56.9887 111.063 56.9369L105.252 48.3552L110.61 40.1977C110.683 40.1072 110.719 40.0037 110.719 39.8795C110.719 39.7398 110.659 39.613 110.545 39.4992C110.432 39.3853 110.302 39.3258 110.165 39.3258H106.52C106.256 39.3258 106.051 39.3905 105.914 39.5224C105.772 39.6544 105.669 39.776 105.596 39.8795L102.401 44.6606L100.551 41.8483L99.8189 40.7358C99.2368 39.9079 98.2976 39.3983 97.2834 39.3595L96.3908 39.3258L94.9808 39.2715H93.4414V39.3465L96.7401 44.3579L99.3661 48.3836L99.3635 48.381Z" fill="url(#paint3_linear_2621_6135)"/>
<path d="M99.3635 48.381L93.607 56.9369C93.5733 56.9887 93.5449 57.0404 93.5268 57.0922C93.5087 57.1465 93.5035 57.2008 93.5035 57.2526C93.5035 57.3949 93.5578 57.5217 93.6743 57.6381C93.7907 57.7545 93.9278 57.8088 94.083 57.8088H97.8862C98.1501 57.8088 98.3493 57.7442 98.4916 57.6122C98.6339 57.4803 98.7297 57.369 98.7814 57.2836L102.238 52.2127L105.723 57.2836C105.777 57.369 105.878 57.4803 106.028 57.6122C106.178 57.7442 106.385 57.8088 106.649 57.8088H110.584C110.745 57.8088 110.874 57.7545 110.98 57.6381C111.089 57.5242 111.14 57.3949 111.14 57.2526C111.14 57.2008 111.138 57.1491 111.128 57.0922C111.117 57.0404 111.097 56.9887 111.063 56.9369L105.252 48.3552L110.61 40.1977C110.683 40.1072 110.719 40.0037 110.719 39.8795C110.719 39.7398 110.659 39.613 110.545 39.4992C110.432 39.3853 110.302 39.3258 110.165 39.3258H106.52C106.256 39.3258 106.051 39.3905 105.914 39.5224C105.772 39.6544 105.669 39.776 105.596 39.8795L102.401 44.6606L100.551 41.8483L99.8189 40.7358C99.2368 39.9079 98.2976 39.3983 97.2834 39.3595L96.3908 39.3258L94.9808 39.2715H93.4414V39.3465L96.7401 44.3579L99.3661 48.3836L99.3635 48.381Z" fill="url(#paint4_linear_2621_6135)"/>
<path d="M127.559 48.5102C128.16 47.6486 128.457 46.5931 128.457 45.3434C128.457 43.4237 127.805 41.9413 126.504 40.896C125.202 39.8456 123.407 39.323 121.12 39.323H113.938C113.744 39.323 113.583 39.3851 113.459 39.5067C113.337 39.6309 113.275 39.7913 113.275 39.9853V57.1463C113.275 57.3196 113.337 57.4748 113.459 57.6068C113.583 57.7387 113.744 57.8034 113.938 57.8034H117.342C117.537 57.8034 117.7 57.7387 117.831 57.6068C117.963 57.4748 118.028 57.3196 118.028 57.1463V51.2837H120.719L123.73 57.0894C123.8 57.2317 123.917 57.3869 124.074 57.5525C124.235 57.718 124.481 57.8008 124.817 57.8008H128.325C128.467 57.8008 128.594 57.7465 128.711 57.6301C128.737 57.6042 128.757 57.5783 128.778 57.5525V56.9057L125.184 50.4583C126.173 50.0185 126.964 49.3665 127.562 48.505L127.559 48.5102ZM122.928 46.9268C122.512 47.333 121.893 47.5322 121.065 47.5322H118.031V42.9942H121.065C121.927 42.9942 122.558 43.2012 122.954 43.6255C123.353 44.0472 123.549 44.6035 123.549 45.2917C123.549 45.9799 123.342 46.5206 122.928 46.9268Z" fill="url(#paint5_linear_2621_6135)"/>
<path d="M127.559 48.5102C128.16 47.6486 128.457 46.5931 128.457 45.3434C128.457 43.4237 127.805 41.9413 126.504 40.896C125.202 39.8456 123.407 39.323 121.12 39.323H113.938C113.744 39.323 113.583 39.3851 113.459 39.5067C113.337 39.6309 113.275 39.7913 113.275 39.9853V57.1463C113.275 57.3196 113.337 57.4748 113.459 57.6068C113.583 57.7387 113.744 57.8034 113.938 57.8034H117.342C117.537 57.8034 117.7 57.7387 117.831 57.6068C117.963 57.4748 118.028 57.3196 118.028 57.1463V51.2837H120.719L123.73 57.0894C123.8 57.2317 123.917 57.3869 124.074 57.5525C124.235 57.718 124.481 57.8008 124.817 57.8008H128.325C128.467 57.8008 128.594 57.7465 128.711 57.6301C128.737 57.6042 128.757 57.5783 128.778 57.5525V56.9057L125.184 50.4583C126.173 50.0185 126.964 49.3665 127.562 48.505L127.559 48.5102ZM122.928 46.9268C122.512 47.333 121.893 47.5322 121.065 47.5322H118.031V42.9942H121.065C121.927 42.9942 122.558 43.2012 122.954 43.6255C123.353 44.0472 123.549 44.6035 123.549 45.2917C123.549 45.9799 123.342 46.5206 122.928 46.9268Z" fill="url(#paint6_linear_2621_6135)"/>
<defs>
<linearGradient id="paint0_linear_2621_6135" x1="1.6243" y1="0.17593" x2="12.2525" y2="10.8042" gradientUnits="userSpaceOnUse">
<stop stop-color="#6FE7F5"/>
<stop offset="0.22" stop-color="#50ADF2"/>
<stop offset="0.49" stop-color="#2860EF"/>
<stop offset="0.54" stop-color="#2658DB"/>
<stop offset="0.79" stop-color="#1D2E6F"/>
<stop offset="0.91" stop-color="#1A1E44"/>
</linearGradient>
<linearGradient id="paint1_linear_2621_6135" x1="93.3486" y1="39.2764" x2="111.138" y2="39.2764" gradientUnits="userSpaceOnUse">
<stop stop-color="#6FE7F5"/>
<stop offset="0.02" stop-color="#67D7F4"/>
<stop offset="0.08" stop-color="#53B3F2"/>
<stop offset="0.14" stop-color="#4394F1"/>
<stop offset="0.2" stop-color="#377DF0"/>
<stop offset="0.27" stop-color="#2E6CEF"/>
<stop offset="0.35" stop-color="#2963EF"/>
<stop offset="0.44" stop-color="#2860EF"/>
<stop offset="0.51" stop-color="#275DE9"/>
<stop offset="0.6" stop-color="#2657D8"/>
<stop offset="0.7" stop-color="#234CBC"/>
<stop offset="0.81" stop-color="#203D95"/>
<stop offset="0.93" stop-color="#1C2A64"/>
<stop offset="1" stop-color="#1A1E44"/>
</linearGradient>
<linearGradient id="paint2_linear_2621_6135" x1="113.274" y1="57.2341" x2="128.879" y2="57.2341" gradientUnits="userSpaceOnUse">
<stop stop-color="#6FE7F5"/>
<stop offset="0.02" stop-color="#67D7F4"/>
<stop offset="0.08" stop-color="#53B3F2"/>
<stop offset="0.14" stop-color="#4394F1"/>
<stop offset="0.2" stop-color="#377DF0"/>
<stop offset="0.27" stop-color="#2E6CEF"/>
<stop offset="0.35" stop-color="#2963EF"/>
<stop offset="0.44" stop-color="#2860EF"/>
<stop offset="0.51" stop-color="#275DE9"/>
<stop offset="0.6" stop-color="#2657D8"/>
<stop offset="0.7" stop-color="#234CBC"/>
<stop offset="0.81" stop-color="#203D95"/>
<stop offset="0.93" stop-color="#1C2A64"/>
<stop offset="1" stop-color="#1A1E44"/>
</linearGradient>
<linearGradient id="paint3_linear_2621_6135" x1="93.3483" y1="48.5389" x2="111.138" y2="48.5389" gradientUnits="userSpaceOnUse">
<stop stop-color="#6FE7F5"/>
<stop offset="0.02" stop-color="#67D7F4"/>
<stop offset="0.08" stop-color="#53B3F2"/>
<stop offset="0.14" stop-color="#4394F1"/>
<stop offset="0.2" stop-color="#377DF0"/>
<stop offset="0.27" stop-color="#2E6CEF"/>
<stop offset="0.35" stop-color="#2963EF"/>
<stop offset="0.44" stop-color="#2860EF"/>
<stop offset="0.51" stop-color="#275DE9"/>
<stop offset="0.6" stop-color="#2657D8"/>
<stop offset="0.7" stop-color="#234CBC"/>
<stop offset="0.81" stop-color="#203D95"/>
<stop offset="0.93" stop-color="#1C2A64"/>
<stop offset="1" stop-color="#1A1E44"/>
</linearGradient>
<linearGradient id="paint4_linear_2621_6135" x1="93.0611" y1="57.5993" x2="120.084" y2="30.5785" gradientUnits="userSpaceOnUse">
<stop stop-color="#6FE7F5"/>
<stop offset="0.06" stop-color="#5EC8F3"/>
<stop offset="0.14" stop-color="#4BA2F1"/>
<stop offset="0.22" stop-color="#3B85F0"/>
<stop offset="0.29" stop-color="#3070EF"/>
<stop offset="0.37" stop-color="#2A64EF"/>
<stop offset="0.44" stop-color="#2860EF"/>
<stop offset="0.62" stop-color="#234CBD"/>
<stop offset="1" stop-color="#1A1E44"/>
</linearGradient>
<linearGradient id="paint5_linear_2621_6135" x1="113.275" y1="48.5645" x2="128.879" y2="48.5645" gradientUnits="userSpaceOnUse">
<stop stop-color="#6FE7F5"/>
<stop offset="0.02" stop-color="#67D7F4"/>
<stop offset="0.08" stop-color="#53B3F2"/>
<stop offset="0.14" stop-color="#4394F1"/>
<stop offset="0.2" stop-color="#377DF0"/>
<stop offset="0.27" stop-color="#2E6CEF"/>
<stop offset="0.35" stop-color="#2963EF"/>
<stop offset="0.44" stop-color="#2860EF"/>
<stop offset="0.51" stop-color="#275DE9"/>
<stop offset="0.6" stop-color="#2657D8"/>
<stop offset="0.7" stop-color="#234CBC"/>
<stop offset="0.81" stop-color="#203D95"/>
<stop offset="0.93" stop-color="#1C2A64"/>
<stop offset="1" stop-color="#1A1E44"/>
</linearGradient>
<linearGradient id="paint6_linear_2621_6135" x1="102.559" y1="67.0967" x2="129.58" y2="40.0759" gradientUnits="userSpaceOnUse">
<stop stop-color="#6FE7F5"/>
<stop offset="0.06" stop-color="#5EC8F3"/>
<stop offset="0.14" stop-color="#4BA2F1"/>
<stop offset="0.22" stop-color="#3B85F0"/>
<stop offset="0.29" stop-color="#3070EF"/>
<stop offset="0.37" stop-color="#2A64EF"/>
<stop offset="0.44" stop-color="#2860EF"/>
<stop offset="0.62" stop-color="#234CBD"/>
<stop offset="1" stop-color="#1A1E44"/>
</linearGradient>
</defs>
</svg>
